<?xml version="1.0" encoding="UTF-8" standalone="no"?>
<svg
   xmlns:dc="http://purl.org/dc/elements/1.1/"
   xmlns:cc="http://creativecommons.org/ns#"
   xmlns:rdf="http://www.w3.org/1999/02/22-rdf-syntax-ns#"
   xmlns:svg="http://www.w3.org/2000/svg"
   xmlns="http://www.w3.org/2000/svg"
   width="1080"
   height="360"
   viewBox="0 0 285.74999 95.250003"
   version="1.1"
   id="svg1262">
  <defs
     id="defs1256">
    <filter
       height="1.3002394"
       y="-0.15011974"
       width="1.3400176"
       x="-0.17000875"
       id="filter1000"
       style="color-interpolation-filters:sRGB">
      <feGaussianBlur
         id="feGaussianBlur1002"
         stdDeviation="9.5477766" />
    </filter>
  </defs>
  <metadata
     id="metadata1259">
    <rdf:RDF>
      <cc:Work
         rdf:about="">
        <dc:format>image/svg+xml</dc:format>
        <dc:type
           rdf:resource="http://purl.org/dc/dcmitype/StillImage" />
        <dc:title></dc:title>
      </cc:Work>
    </rdf:RDF>
  </metadata>
  <path
     transform="scale(0.26458333)"
     d="M 434.24609 63.513672 L 434.24609 79.201172 L 434.24609 195.60547 L 427.69922 202.16016 L 385.0918 202.16016 L 385.0918 190.09766 L 385.0918 174.41211 L 353.71875 174.41211 L 353.71875 190.09766 L 353.71875 233.52539 L 440.69141 233.52539 L 465.61914 208.59766 L 465.61914 79.201172 L 465.61914 63.513672 L 434.24609 63.513672 z M 526.73438 63.513672 L 522.13672 68.113281 L 502.35156 87.888672 L 502.35156 209.15039 L 526.73438 233.52539 L 608.68164 233.52539 L 633.05664 209.15039 L 633.05664 87.888672 L 608.68164 63.513672 L 526.73438 63.513672 z M 699.58203 63.513672 L 669.78906 93.306641 L 669.78906 164.21094 L 770.75781 164.21094 L 770.75781 190.74023 L 759.3457 202.16016 L 701.16211 202.16016 L 701.16211 186.97656 L 669.78906 186.97656 L 669.78906 202.6543 L 669.78906 233.52539 L 772.33789 233.52539 L 802.13086 203.73242 L 802.13086 132.83789 L 701.16211 132.83789 L 701.16211 106.30664 L 712.58203 94.886719 L 770.75781 94.886719 L 770.75781 110.07227 L 802.13086 110.07227 L 802.13086 94.384766 L 802.13086 63.513672 L 699.58203 63.513672 z M 837.20898 66.712891 L 837.20898 94.388672 L 837.20898 148.52148 L 837.20898 202.65625 L 837.20898 230.33789 L 868.58008 230.33789 L 868.58008 202.65625 L 868.58008 164.20703 L 947.72461 164.20703 L 947.72461 202.65625 L 947.72461 230.33789 L 979.08789 230.33789 L 979.08789 202.65625 L 979.08789 164.20703 L 979.08789 132.83594 L 979.08789 94.388672 L 979.08789 66.712891 L 947.72461 66.712891 L 947.72461 94.388672 L 947.72461 132.83594 L 868.58008 132.83594 L 868.58008 94.388672 L 868.58008 66.712891 L 837.20898 66.712891 z M 539.71875 94.886719 L 595.68164 94.886719 L 601.68359 100.88867 L 601.68359 196.1582 L 595.68164 202.16016 L 539.72656 202.16016 L 533.72461 196.1582 L 533.72461 100.88867 L 539.71875 94.886719 z "
     style="color:#000000;font-style:normal;font-variant:normal;font-weight:normal;font-stretch:normal;font-size:medium;line-height:normal;font-family:sans-serif;font-variant-ligatures:normal;font-variant-position:normal;font-variant-caps:normal;font-variant-numeric:normal;font-variant-alternates:normal;font-variant-east-asian:normal;font-feature-settings:normal;font-variation-settings:normal;text-indent:0;text-align:start;text-decoration:none;text-decoration-line:none;text-decoration-style:solid;text-decoration-color:#000000;letter-spacing:normal;word-spacing:normal;text-transform:none;writing-mode:lr-tb;direction:ltr;text-orientation:mixed;dominant-baseline:auto;baseline-shift:baseline;text-anchor:start;white-space:normal;shape-padding:0;shape-margin:0;inline-size:0;clip-rule:nonzero;display:inline;overflow:visible;visibility:visible;opacity:0.999;isolation:auto;mix-blend-mode:normal;color-interpolation:sRGB;color-interpolation-filters:linearRGB;solid-color:#000000;solid-opacity:1;vector-effect:none;fill:#347154;fill-opacity:1;fill-rule:evenodd;stroke:none;stroke-width:31.3701;stroke-linecap:butt;stroke-linejoin:miter;stroke-miterlimit:4;stroke-dasharray:none;stroke-dashoffset:0;stroke-opacity:1;color-rendering:auto;image-rendering:auto;shape-rendering:auto;text-rendering:auto;enable-background:accumulate;stop-color:#000000;stop-opacity:1"
     id="path1605" />
  <path
     transform="matrix(0.3685653,0,0,0.3685653,-386.9705,-200.2528)"
     d="m 1149.9844,596.22656 -8.0176,8.01758 16.5137,16.51953 v 42.30664 l 13.1621,9.47852 -13.1621,9.47851 v 42.3125 l -16.5137,16.51368 8.0176,8.01562 h 118.7519 l 8.0157,-8.01562 -16.5118,-16.51368 v -42.3125 l -13.1621,-9.47851 13.1621,-9.47852 v -42.30664 l 16.5118,-16.51953 -8.0157,-8.01758 z"
     style="color:#000000;font-style:normal;font-variant:normal;font-weight:normal;font-stretch:normal;font-size:medium;line-height:normal;font-family:sans-serif;font-variant-ligatures:normal;font-variant-position:normal;font-variant-caps:normal;font-variant-numeric:normal;font-variant-alternates:normal;font-variant-east-asian:normal;font-feature-settings:normal;font-variation-settings:normal;text-indent:0;text-align:start;text-decoration:none;text-decoration-line:none;text-decoration-style:solid;text-decoration-color:#000000;letter-spacing:normal;word-spacing:normal;text-transform:none;writing-mode:lr-tb;direction:ltr;text-orientation:mixed;dominant-baseline:auto;baseline-shift:baseline;text-anchor:start;white-space:normal;shape-padding:0;shape-margin:0;inline-size:0;clip-rule:nonzero;display:inline;overflow:visible;visibility:visible;opacity:0.5;isolation:auto;mix-blend-mode:normal;color-interpolation:sRGB;color-interpolation-filters:linearRGB;solid-color:#000000;solid-opacity:1;vector-effect:none;fill:#000000;fill-opacity:1;fill-rule:nonzero;stroke:none;stroke-width:11.3386;stroke-linecap:butt;stroke-linejoin:miter;stroke-miterlimit:4;stroke-dasharray:none;stroke-dashoffset:0;stroke-opacity:1;filter:url(#filter1000);color-rendering:auto;image-rendering:auto;shape-rendering:auto;text-rendering:auto;enable-background:accumulate;stop-color:#000000"
     id="path1214" />
  <path
     d="m 36.873842,15.26504 -2.955004,2.95499 6.086377,6.08854 v 15.59276 l 4.85109,3.49345 -4.85109,3.49344 v 15.59494 l -6.086377,6.08636 2.955004,2.95428 7.310827,-7.31012 v -15.1846 l 7.821947,-5.6343 -7.821947,-5.63501 V 22.57588 Z m 43.76784,0 -7.310827,7.31084 v 15.18389 l -7.821961,5.63501 7.821961,5.6343 v 15.1846 l 7.310827,7.31012 2.954308,-2.95428 -6.085681,-6.08636 V 46.88822 l -4.85109,-3.49344 4.85109,-3.49345 V 24.30857 l 6.085681,-6.08854 z"
     style="color:#000000;font-style:normal;font-variant:normal;font-weight:normal;font-stretch:normal;font-size:medium;line-height:normal;font-family:sans-serif;font-variant-ligatures:normal;font-variant-position:normal;font-variant-caps:normal;font-variant-numeric:normal;font-variant-alternates:normal;font-variant-east-asian:normal;font-feature-settings:normal;font-variation-settings:normal;text-indent:0;text-align:start;text-decoration:none;text-decoration-line:none;text-decoration-style:solid;text-decoration-color:#000000;letter-spacing:normal;word-spacing:normal;text-transform:none;writing-mode:lr-tb;direction:ltr;text-orientation:mixed;dominant-baseline:auto;baseline-shift:baseline;text-anchor:start;white-space:normal;shape-padding:0;shape-margin:0;inline-size:0;clip-rule:nonzero;display:inline;overflow:visible;visibility:visible;isolation:auto;mix-blend-mode:normal;color-interpolation:sRGB;color-interpolation-filters:linearRGB;solid-color:#000000;solid-opacity:1;vector-effect:none;fill:#2b5e46;fill-opacity:1;fill-rule:nonzero;stroke:none;stroke-width:4.17901;stroke-linecap:butt;stroke-linejoin:miter;stroke-miterlimit:4;stroke-dasharray:none;stroke-dashoffset:0;stroke-opacity:1;color-rendering:auto;image-rendering:auto;shape-rendering:auto;text-rendering:auto;enable-background:accumulate;stop-color:#000000"
     id="path1216" />
  <path
     style="fill:#58b36f;fill-opacity:1;stroke:none;stroke-width:0.368565px;stroke-linecap:butt;stroke-linejoin:miter;stroke-opacity:1"
     d="m 36.874149,15.26504 h 43.767519 l -7.310827,7.31084 H 44.184989 Z"
     id="path1218" />
  <path
     d="m 44.184892,22.57588 v 15.18389 l 7.821961,5.63501 -7.821961,5.6343 v 15.1846 L 36.874079,71.5238 H 80.64157 l -7.310826,-7.31012 v -15.1846 l -7.821948,-5.6343 7.821948,-5.63501 V 22.57588 Z"
     style="fill:#45975a;fill-opacity:1;stroke:none;stroke-width:0.368565px;stroke-linecap:butt;stroke-linejoin:miter;stroke-opacity:1"
     id="path1220" />
  <path
     transform="scale(0.26458333)"
     d="M 591.4707 252.53125 L 591.4707 277.39648 L 594.22266 277.39648 L 594.36719 275.40625 C 594.94999 276.15093 595.65242 276.72177 596.47266 277.12109 C 597.30367 277.52042 598.27992 277.7207 599.40234 277.7207 C 600.51398 277.7207 601.497 277.4943 602.34961 277.04102 C 603.213 276.58773 603.93477 275.96075 604.51758 275.16211 C 605.10036 274.36346 605.54352 273.42495 605.8457 272.3457 C 606.14791 271.25566 606.29883 270.08396 606.29883 268.83203 L 606.29883 268.49219 C 606.29883 267.1863 606.14791 265.98848 605.8457 264.89844 C 605.54352 263.7976 605.10036 262.85426 604.51758 262.06641 C 603.93477 261.27855 603.213 260.6632 602.34961 260.2207 C 601.48621 259.77821 600.49156 259.55664 599.36914 259.55664 C 598.28988 259.55664 597.34656 259.74531 596.53711 260.12305 C 595.72769 260.50078 595.03686 261.04551 594.46484 261.75781 L 594.46484 252.53125 L 591.4707 252.53125 z M 910 252.53125 L 910 255.13672 L 915.95703 255.13672 L 915.95703 274.80664 L 910 274.80664 L 910 277.39648 L 924.66602 277.39648 L 924.66602 274.80664 L 918.95117 274.80664 L 918.95117 252.53125 L 910 252.53125 z M 578.67969 253.50195 C 577.70837 253.50195 576.82887 253.65289 576.04102 253.95508 C 575.26397 254.24648 574.57315 254.65672 573.96875 255.18555 C 573.36438 255.70359 572.84092 256.31411 572.39844 257.01562 C 571.96671 257.70634 571.60583 258.45136 571.31445 259.25 C 571.03389 260.04864 570.82394 260.87879 570.68359 261.74219 C 570.55333 262.59479 570.48273 263.44139 570.47266 264.2832 L 570.47266 266.9707 C 570.48349 267.81252 570.55887 268.66106 570.69922 269.51367 C 570.83951 270.36628 571.04946 271.19159 571.33008 271.99023 C 571.62148 272.78888 571.98916 273.53872 572.43164 274.24023 C 572.87415 274.93095 573.39758 275.53469 574.00195 276.05273 C 574.60632 276.57077 575.29715 276.98101 576.07422 277.2832 C 576.86207 277.5746 577.74158 277.7207 578.71289 277.7207 C 579.68423 277.7207 580.55889 277.5746 581.33594 277.2832 C 582.12379 276.98101 582.81946 276.57077 583.42383 276.05273 C 584.02822 275.53469 584.54682 274.93095 584.97852 274.24023 C 585.421 273.54952 585.78188 272.8045 586.0625 272.00586 C 586.34309 271.20721 586.54822 270.38191 586.67773 269.5293 C 586.81884 268.6659 586.89422 267.81252 586.9043 266.9707 L 586.9043 264.2832 C 586.89346 263.44139 586.81808 262.58996 586.67773 261.72656 C 586.54822 260.86316 586.33828 260.03107 586.04688 259.23242 C 585.76628 258.43378 585.40344 257.68877 584.96094 256.99805 C 584.52924 256.29654 584.01257 255.68796 583.4082 255.16992 C 582.80383 254.65188 582.10621 254.24648 581.31836 253.95508 C 580.5305 253.65289 579.65103 253.50195 578.67969 253.50195 z M 718.17969 253.50195 C 717.25154 253.50195 716.32752 253.64806 715.41016 253.93945 C 714.49281 254.22006 713.67232 254.63513 712.94922 255.18555 C 712.22612 255.73596 711.63884 256.41034 711.18555 257.20898 C 710.74306 258.00763 710.52148 258.91519 710.52148 259.92969 C 710.52148 260.94418 710.74306 261.82851 711.18555 262.58398 C 711.63884 263.32867 712.21646 263.97693 712.91797 264.52734 C 713.63028 265.07776 714.41301 265.54218 715.26562 265.91992 C 716.12902 266.29766 716.97562 266.62081 717.80664 266.89062 C 718.37863 267.07409 718.97271 267.27921 719.58789 267.50586 C 720.21386 267.7325 720.78469 268.01792 721.30273 268.36328 C 721.82076 268.69785 722.24263 269.11292 722.56641 269.60938 C 722.90097 270.10583 723.06836 270.71636 723.06836 271.43945 C 723.06836 272.087 722.92708 272.64818 722.64648 273.12305 C 722.36587 273.58712 722.00498 273.97608 721.5625 274.28906 C 721.11999 274.59124 720.61301 274.81764 720.04102 274.96875 C 719.47981 275.10905 718.90702 275.17969 718.32422 275.17969 C 717.59034 275.17969 716.91112 275.08099 716.28516 274.88672 C 715.66998 274.68166 715.12525 274.38658 714.65039 273.99805 C 714.17553 273.59872 713.78656 273.11785 713.48438 272.55664 C 713.18204 271.98464 712.98177 271.33155 712.88477 270.59766 L 709.82617 270.59766 C 709.85855 271.72008 710.12269 272.72439 710.61914 273.60938 C 711.11559 274.48357 711.75707 275.22663 712.54492 275.8418 C 713.34356 276.44618 714.24436 276.9106 715.24805 277.23438 C 716.25176 277.55815 717.27737 277.7207 718.32422 277.7207 C 719.26318 277.7207 720.20364 277.59105 721.14258 277.33203 C 722.08154 277.06222 722.9233 276.66843 723.66797 276.15039 C 724.41266 275.62156 725.01639 274.96363 725.48047 274.17578 C 725.95533 273.38793 726.19336 272.46391 726.19336 271.40625 C 726.19336 270.70474 726.08987 270.0681 725.88477 269.49609 C 725.6905 268.9133 725.41475 268.38503 725.05859 267.91016 C 724.70246 267.42449 724.28739 266.99297 723.8125 266.61523 C 723.33764 266.2375 722.82582 265.89789 722.27539 265.5957 C 721.72497 265.29352 721.15218 265.02938 720.55859 264.80273 C 719.96501 264.56531 719.3777 264.35341 718.79492 264.16992 C 718.26609 264.00802 717.69815 263.81935 717.09375 263.60352 C 716.50016 263.38766 715.94576 263.1187 715.42773 262.79492 C 714.92047 262.47115 714.49863 262.07736 714.16406 261.61328 C 713.82879 261.13841 713.65656 260.56079 713.64648 259.88086 C 713.64648 259.25489 713.77134 258.70339 714.01953 258.22852 C 714.27855 257.75365 714.61815 257.35502 715.03906 257.03125 C 715.47076 256.70748 715.95648 256.46462 716.49609 256.30273 C 717.04652 256.14084 717.60769 256.06055 718.17969 256.06055 C 718.892 256.06055 719.52863 256.17374 720.08984 256.40039 C 720.66184 256.61624 721.15237 256.92294 721.5625 257.32227 C 721.97265 257.72159 722.30259 258.20246 722.55078 258.76367 C 722.79892 259.31409 722.96631 259.92945 723.05273 260.60938 L 726.12695 260.60938 C 726.10536 259.53013 725.87412 258.55388 725.43164 257.67969 C 724.98916 256.8055 724.40188 256.06049 723.66797 255.44531 C 722.93409 254.83014 722.09232 254.3541 721.14258 254.01953 C 720.19283 253.67417 719.20497 253.50195 718.17969 253.50195 z M 499.89062 253.51758 C 499.28625 253.51758 498.83148 253.69175 498.5293 254.03711 C 498.2379 254.37168 498.09375 254.78675 498.09375 255.2832 C 498.09375 255.76887 498.2379 256.17427 498.5293 256.49805 C 498.83148 256.82182 499.28625 256.98242 499.89062 256.98242 C 500.48421 256.98242 500.93219 256.82182 501.23438 256.49805 C 501.53659 256.17427 501.6875 255.76887 501.6875 255.2832 C 501.6875 254.78675 501.53659 254.37168 501.23438 254.03711 C 500.93219 253.69175 500.48421 253.51758 499.89062 253.51758 z M 620.56055 253.51758 C 619.95615 253.51758 619.50817 253.69175 619.2168 254.03711 C 618.9254 254.37168 618.7793 254.78192 618.7793 255.26758 C 618.7793 255.75324 618.9254 256.16348 619.2168 256.49805 C 619.50817 256.82182 619.95615 256.98242 620.56055 256.98242 C 621.16492 256.98242 621.61774 256.82182 621.91992 256.49805 C 622.22211 256.16348 622.375 255.75324 622.375 255.26758 C 622.375 254.78192 622.22211 254.37168 621.91992 254.03711 C 621.61774 253.69175 621.16492 253.51758 620.56055 253.51758 z M 363.95312 253.82617 L 363.95312 270.22461 C 363.93156 270.89374 363.81352 271.53039 363.59766 272.13477 C 363.3926 272.72835 363.09073 273.25179 362.69141 273.70508 C 362.30288 274.15836 361.82683 274.52121 361.26562 274.79102 C 360.70442 275.05004 360.06777 275.17969 359.35547 275.17969 C 358.66475 275.17969 358.03973 275.06649 357.47852 274.83984 C 356.9281 274.6132 356.45206 274.29488 356.05273 273.88477 C 355.65341 273.46386 355.33509 272.97137 355.09766 272.41016 C 354.87101 271.84895 354.74136 271.24037 354.70898 270.58203 L 351.66602 270.58203 C 351.76315 271.67207 352.01083 272.65798 352.41016 273.54297 C 352.80948 274.41716 353.33971 275.16896 353.99805 275.79492 C 354.66718 276.4101 355.44797 276.88418 356.34375 277.21875 C 357.25032 277.55332 358.25464 277.7207 359.35547 277.7207 C 360.44551 277.7207 361.44983 277.53687 362.36719 277.16992 C 363.29534 276.79219 364.09937 276.27358 364.7793 275.61523 C 365.45922 274.9461 365.99233 274.15369 366.38086 273.23633 C 366.7801 272.31897 366.992 271.31465 367.01367 270.22461 L 367.01367 253.82617 L 363.95312 253.82617 z M 869.23633 253.82617 L 869.23633 277.39648 L 872.05273 277.39648 L 872.05273 266.50195 L 881.7168 266.50195 L 881.7168 277.39648 L 884.55078 277.39648 L 884.55078 253.82617 L 881.7168 253.82617 L 881.7168 263.96094 L 872.05273 263.96094 L 872.05273 253.82617 L 869.23633 253.82617 z M 535.89453 255.63867 L 535.89453 259.88086 L 531.29688 259.88086 L 531.29688 262.19531 L 535.89453 262.19531 L 535.89453 271.71484 C 535.89453 272.79409 536.03386 273.71616 536.31445 274.48242 C 536.60585 275.2379 536.99964 275.85809 537.49609 276.34375 C 537.99255 276.81862 538.57499 277.16984 539.24414 277.39648 C 539.92405 277.61235 540.65262 277.7207 541.42969 277.7207 C 541.89376 277.7207 542.35819 277.69941 542.82227 277.65625 C 543.29713 277.61309 543.7451 277.54729 544.16602 277.46094 C 544.58693 277.38537 544.97587 277.29346 545.33203 277.18555 C 545.68821 277.06684 545.99009 276.93236 546.23828 276.78125 L 545.81836 274.66016 C 545.6349 274.70332 545.39687 274.75751 545.10547 274.82227 C 544.82488 274.87621 544.51623 274.9304 544.18164 274.98438 C 543.85789 275.03835 543.52311 275.0877 543.17773 275.13086 C 542.83239 275.16324 542.49956 275.17969 542.17578 275.17969 C 541.73327 275.17969 541.31143 275.1255 540.91211 275.01758 C 540.5236 274.90965 540.17916 274.72582 539.87695 274.4668 C 539.57469 274.19698 539.33666 273.84093 539.16406 273.39844 C 538.99146 272.95595 538.9043 272.39477 538.9043 271.71484 L 538.9043 262.19531 L 545.57422 262.19531 L 545.57422 259.88086 L 538.9043 259.88086 L 538.9043 255.63867 L 535.89453 255.63867 z M 675.05273 255.63867 L 675.05273 259.88086 L 670.45508 259.88086 L 670.45508 262.19531 L 675.05273 262.19531 L 675.05273 271.71484 C 675.05273 272.79409 675.19206 273.71616 675.47266 274.48242 C 675.76406 275.2379 676.15784 275.85809 676.6543 276.34375 C 677.15075 276.81862 677.73319 277.16984 678.40234 277.39648 C 679.08226 277.61235 679.81082 277.7207 680.58789 277.7207 C 681.05197 277.7207 681.51639 277.69941 681.98047 277.65625 C 682.45533 277.61309 682.90331 277.54729 683.32422 277.46094 C 683.74513 277.38537 684.13408 277.29346 684.49023 277.18555 C 684.84642 277.06684 685.1483 276.93236 685.39648 276.78125 L 684.97656 274.66016 C 684.7931 274.70332 684.55507 274.75751 684.26367 274.82227 C 683.98308 274.87621 683.67443 274.9304 683.33984 274.98438 C 683.01609 275.03835 682.68326 275.0877 682.33789 275.13086 C 681.99254 275.16324 681.65776 275.17969 681.33398 275.17969 C 680.89148 275.17969 680.46963 275.1255 680.07031 275.01758 C 679.6818 274.90965 679.33737 274.72582 679.03516 274.4668 C 678.73289 274.19698 678.49486 273.84093 678.32227 273.39844 C 678.14967 272.95595 678.0625 272.39477 678.0625 271.71484 L 678.0625 262.19531 L 684.73242 262.19531 L 684.73242 259.88086 L 678.0625 259.88086 L 678.0625 255.63867 L 675.05273 255.63867 z M 734.69141 255.63867 L 734.69141 259.88086 L 730.09375 259.88086 L 730.09375 262.19531 L 734.69141 262.19531 L 734.69141 271.71484 C 734.69141 272.79409 734.83266 273.71616 735.11328 274.48242 C 735.40466 275.2379 735.79847 275.85809 736.29492 276.34375 C 736.7914 276.81862 737.37384 277.16984 738.04297 277.39648 C 738.72288 277.61235 739.45144 277.7207 740.22852 277.7207 C 740.69259 277.7207 741.15702 277.69941 741.62109 277.65625 C 742.09595 277.61309 742.54393 277.54729 742.96484 277.46094 C 743.38576 277.38537 743.77275 277.29346 744.12891 277.18555 C 744.48509 277.06684 744.78697 276.93236 745.03516 276.78125 L 744.61523 274.66016 C 744.43175 274.70332 744.19375 274.75751 743.90234 274.82227 C 743.62175 274.87621 743.31503 274.9304 742.98047 274.98438 C 742.65669 275.03835 742.32194 275.0877 741.97656 275.13086 C 741.63121 275.16324 741.29644 275.17969 740.97266 275.17969 C 740.53017 275.17969 740.11028 275.1255 739.71094 275.01758 C 739.32243 274.90965 738.97601 274.72582 738.67383 274.4668 C 738.37154 274.19698 738.13354 273.84093 737.96094 273.39844 C 737.78834 272.95595 737.70312 272.39477 737.70312 271.71484 L 737.70312 262.19531 L 744.37305 262.19531 L 744.37305 259.88086 L 737.70312 259.88086 L 737.70312 255.63867 L 734.69141 255.63867 z M 578.68164 256.17383 C 579.38317 256.17383 579.99656 256.29668 580.52539 256.54492 C 581.05422 256.78236 581.51381 257.1123 581.90234 257.5332 C 582.29085 257.94332 582.61402 258.42419 582.87305 258.97461 C 583.13199 259.51424 583.3371 260.08507 583.48828 260.68945 C 583.65005 261.28304 583.76337 261.88874 583.82812 262.50391 C 583.89364 263.10829 583.93133 263.69074 583.94141 264.25195 L 583.94141 266.9707 C 583.93057 267.53191 583.89288 268.12115 583.82812 268.73633 C 583.77395 269.3515 583.66567 269.96007 583.50391 270.56445 C 583.3528 271.15804 583.14767 271.73083 582.88867 272.28125 C 582.64043 272.82088 582.32213 273.30175 581.93359 273.72266 C 581.55587 274.13276 581.09823 274.46075 580.55859 274.70898 C 580.02976 274.95722 579.4144 275.08203 578.71289 275.08203 C 578.01139 275.08203 577.39602 274.95722 576.86719 274.70898 C 576.33836 274.46076 575.88072 274.13277 575.49219 273.72266 C 575.10365 273.30175 574.77855 272.81604 574.51953 272.26562 C 574.26041 271.71521 574.05044 271.14242 573.88867 270.54883 C 573.72691 269.94445 573.60879 269.33392 573.5332 268.71875 C 573.46769 268.10358 573.43 267.52112 573.41992 266.9707 L 573.41992 264.25195 C 573.43076 263.70154 573.46845 263.12391 573.5332 262.51953 C 573.60879 261.90436 573.72187 261.30062 573.87305 260.70703 C 574.03494 260.10265 574.24488 259.52986 574.50391 258.99023 C 574.76293 258.43982 575.08607 257.95894 575.47461 257.54883 C 575.86314 257.12793 576.32273 256.79316 576.85156 256.54492 C 577.38039 256.29668 577.99094 256.17383 578.68164 256.17383 z M 379.81836 259.55664 C 378.72832 259.55664 377.75207 259.70757 376.88867 260.00977 C 376.03607 260.31195 375.30751 260.71253 374.70312 261.20898 C 374.10954 261.69465 373.64995 262.2442 373.32617 262.85938 C 373.01323 263.47455 372.85263 264.09957 372.8418 264.73633 L 375.85156 264.73633 C 375.85156 264.36938 375.93865 264.02012 376.11133 263.68555 C 376.2948 263.3402 376.54732 263.04316 376.87109 262.79492 C 377.19487 262.54671 377.58867 262.34642 378.05273 262.19531 C 378.52762 262.04421 379.06266 261.96875 379.65625 261.96875 C 380.293 261.96875 380.86386 262.04905 381.37109 262.21094 C 381.88914 262.37282 382.32744 262.60601 382.68359 262.9082 C 383.03975 263.1996 383.3155 263.55566 383.50977 263.97656 C 383.70403 264.39747 383.80078 264.87156 383.80078 265.40039 L 383.80078 266.77734 L 380.53125 266.77734 C 379.3117 266.77734 378.20384 266.89538 377.21094 267.13281 C 376.22882 267.37025 375.38706 267.73309 374.68555 268.21875 C 373.98403 268.69362 373.43931 269.29253 373.05078 270.01562 C 372.67304 270.73872 372.48438 271.58048 372.48438 272.54102 C 372.48438 273.2749 372.62565 273.95895 372.90625 274.5957 C 373.19765 275.22167 373.6011 275.76639 374.11914 276.23047 C 374.64797 276.68376 375.28461 277.04659 376.0293 277.31641 C 376.78477 277.58622 377.62655 277.7207 378.55469 277.7207 C 379.12671 277.7207 379.66659 277.6617 380.17383 277.54297 C 380.68109 277.42425 381.15713 277.26169 381.59961 277.05664 C 382.0529 276.85158 382.46314 276.61356 382.83008 276.34375 C 383.2078 276.07394 383.54742 275.78852 383.84961 275.48633 C 383.88211 275.85327 383.92938 276.20933 383.99414 276.55469 C 384.06973 276.88925 384.16843 277.16984 384.28711 277.39648 L 387.41016 277.39648 L 387.41016 277.13867 C 387.21581 276.65301 387.06487 276.08505 386.95703 275.4375 C 386.84919 274.77916 386.79492 274.15897 386.79492 273.57617 L 386.79492 265.43359 C 386.79492 264.45148 386.61788 263.59327 386.26172 262.85938 C 385.90556 262.12549 385.41503 261.51496 384.78906 261.0293 C 384.17391 260.53284 383.43855 260.16712 382.58594 259.92969 C 381.73333 259.68147 380.81127 259.55664 379.81836 259.55664 z M 419.57812 259.55664 C 418.48808 259.55664 417.51183 259.70757 416.64844 260.00977 C 415.79583 260.31195 415.06726 260.71253 414.46289 261.20898 C 413.8693 261.69465 413.40972 262.2442 413.08594 262.85938 C 412.77224 263.47455 412.60969 264.09957 412.59961 264.73633 L 415.61133 264.73633 C 415.61133 264.36938 415.6985 264.02012 415.87109 263.68555 C 416.05455 263.3402 416.30708 263.04316 416.63086 262.79492 C 416.95464 262.54671 417.34842 262.34642 417.8125 262.19531 C 418.28736 262.04421 418.82243 261.96875 419.41602 261.96875 C 420.05277 261.96875 420.6236 262.04905 421.13086 262.21094 C 421.64891 262.37282 422.08723 262.60601 422.44336 262.9082 C 422.79952 263.1996 423.07526 263.55566 423.26953 263.97656 C 423.4638 264.39747 423.56055 264.87156 423.56055 265.40039 L 423.56055 266.77734 L 420.28906 266.77734 C 419.06951 266.77734 417.96361 266.89538 416.9707 267.13281 C 415.98858 267.37025 415.14682 267.73309 414.44531 268.21875 C 413.74378 268.69362 413.19906 269.29253 412.81055 270.01562 C 412.4328 270.73872 412.24414 271.58048 412.24414 272.54102 C 412.24414 273.2749 412.38345 273.95895 412.66406 274.5957 C 412.95546 275.22167 413.36088 275.76639 413.87891 276.23047 C 414.40774 276.68376 415.04437 277.04659 415.78906 277.31641 C 416.54454 277.58622 417.3863 277.7207 418.31445 277.7207 C 418.88645 277.7207 419.42633 277.6617 419.93359 277.54297 C 420.44083 277.42425 420.91494 277.26169 421.35742 277.05664 C 421.81071 276.85158 422.22095 276.61356 422.58789 276.34375 C 422.96564 276.07394 423.30719 275.78852 423.60938 275.48633 C 423.64188 275.85327 423.68915 276.20933 423.75391 276.55469 C 423.8295 276.88925 423.92624 277.16984 424.04492 277.39648 L 427.16992 277.39648 L 427.16992 277.13867 C 426.97558 276.65301 426.82464 276.08505 426.7168 275.4375 C 426.60895 274.77916 426.55469 274.15897 426.55469 273.57617 L 426.55469 265.43359 C 426.55469 264.45148 426.37762 263.59327 426.02148 262.85938 C 425.66533 262.12549 425.17284 261.51496 424.54688 261.0293 C 423.93169 260.53284 423.19831 260.16712 422.3457 259.92969 C 421.49312 259.68147 420.57106 259.55664 419.57812 259.55664 z M 439.86133 259.55664 C 438.85764 259.55664 437.93558 259.69112 437.09375 259.96094 C 436.26273 260.23075 435.54578 260.59842 434.94141 261.0625 C 434.33703 261.52658 433.86779 262.0713 433.5332 262.69727 C 433.19864 263.31244 433.03125 263.97715 433.03125 264.68945 C 433.03125 265.41255 433.19185 266.04919 433.51562 266.59961 C 433.8394 267.13924 434.29415 267.61332 434.87695 268.02344 C 435.47054 268.42276 436.17589 268.76915 436.99609 269.06055 C 437.82714 269.35195 438.74436 269.59964 439.74805 269.80469 C 440.56828 269.96658 441.25426 270.15042 441.80469 270.35547 C 442.35509 270.54974 442.79825 270.76452 443.13281 271.00195 C 443.46735 271.23939 443.7034 271.50353 443.84375 271.79492 C 443.9841 272.07553 444.05469 272.39385 444.05469 272.75 C 444.0439 273.51627 443.67141 274.13163 442.9375 274.5957 C 442.20362 275.05978 441.20607 275.29297 439.94336 275.29297 C 439.43612 275.29297 438.9243 275.23878 438.40625 275.13086 C 437.8882 275.02293 437.41217 274.8391 436.98047 274.58008 C 436.55956 274.32106 436.20349 273.98145 435.91211 273.56055 C 435.63142 273.13964 435.46887 272.62103 435.42578 272.00586 L 432.43164 272.00586 C 432.43164 272.75054 432.59903 273.46748 432.93359 274.1582 C 433.27897 274.84892 433.7695 275.45945 434.40625 275.98828 C 435.05381 276.50632 435.84138 276.92818 436.76953 277.25195 C 437.69768 277.56493 438.75618 277.7207 439.94336 277.7207 C 440.97943 277.7207 441.93439 277.5959 442.80859 277.34766 C 443.68277 277.09943 444.43263 276.75016 445.05859 276.29688 C 445.68456 275.84359 446.17025 275.29691 446.51562 274.66016 C 446.87178 274.0234 447.05078 273.31807 447.05078 272.54102 C 447.05078 271.81792 446.89307 271.18127 446.58008 270.63086 C 446.27789 270.08044 445.83671 269.59957 445.25391 269.18945 C 444.67113 268.76855 443.95222 268.41249 443.09961 268.12109 C 442.247 267.81891 441.28238 267.55477 440.20312 267.32812 C 439.38289 267.16623 438.70173 266.99885 438.16211 266.82617 C 437.63328 266.6535 437.20659 266.45805 436.88281 266.24219 C 436.56984 266.02634 436.35021 265.78348 436.2207 265.51367 C 436.09119 265.24386 436.02539 264.93716 436.02539 264.5918 C 436.02539 264.25723 436.10581 263.93408 436.26758 263.62109 C 436.42947 263.30811 436.6675 263.03235 436.98047 262.79492 C 437.30425 262.55748 437.70287 262.36881 438.17773 262.22852 C 438.6634 262.08822 439.22458 262.01758 439.86133 262.01758 C 440.47651 262.01758 441.028 262.10467 441.51367 262.27734 C 442.01013 262.45002 442.43004 262.67643 442.77539 262.95703 C 443.12076 263.23764 443.39167 263.56079 443.58594 263.92773 C 443.78021 264.28389 443.87695 264.65156 443.87695 265.0293 L 446.87109 265.0293 C 446.87109 264.26303 446.7037 263.55092 446.36914 262.89258 C 446.04536 262.22344 445.58289 261.63903 444.97852 261.14258 C 444.37412 260.64612 443.63879 260.25912 442.77539 259.97852 C 441.912 259.69791 440.94058 259.55664 439.86133 259.55664 z M 459.75781 259.55664 C 458.43034 259.55664 457.27025 259.79466 456.27734 260.26953 C 455.28444 260.7444 454.45428 261.38588 453.78516 262.19531 C 453.12681 262.99396 452.62949 263.9228 452.29492 264.98047 C 451.96033 266.03813 451.79297 267.14403 451.79297 268.29883 L 451.79297 268.97852 C 451.79297 270.1441 451.96033 271.25679 452.29492 272.31445 C 452.62949 273.36132 453.12681 274.28822 453.78516 275.09766 C 454.45428 275.8963 455.28444 276.53294 456.27734 277.00781 C 457.27025 277.48268 458.43034 277.7207 459.75781 277.7207 C 460.68599 277.7207 461.5771 277.56493 462.42969 277.25195 C 463.2823 276.92818 464.03697 276.50149 464.69531 275.97266 C 465.35366 275.43303 465.87709 274.81284 466.26562 274.11133 C 466.66565 273.39902 466.87078 272.65401 466.88086 271.87695 L 464.04883 271.87695 C 464.03799 272.36261 463.90835 272.81542 463.66016 273.23633 C 463.42273 273.64644 463.1044 274.00733 462.70508 274.32031 C 462.30576 274.62251 461.84617 274.86053 461.32812 275.0332 C 460.82089 275.20588 460.29745 275.29297 459.75781 275.29297 C 458.81888 275.29297 458.03128 275.10913 457.39453 274.74219 C 456.76857 274.36445 456.26158 273.87874 455.87305 273.28516 C 455.49522 272.68078 455.21947 272.0064 455.04688 271.26172 C 454.88486 270.50624 454.80469 269.74478 454.80469 268.97852 L 454.80469 268.29883 C 454.80469 267.54335 454.88486 266.79351 455.04688 266.04883 C 455.21955 265.30415 455.50014 264.6346 455.88867 264.04102 C 456.27721 263.43664 456.78419 262.95093 457.41016 262.58398 C 458.04691 262.20625 458.82966 262.01758 459.75781 262.01758 C 460.36221 262.01758 460.92338 262.11917 461.44141 262.32422 C 461.97024 262.52928 462.42498 262.80986 462.80273 263.16602 C 463.18038 263.52217 463.47547 263.9392 463.69141 264.41406 C 463.91868 264.87814 464.03875 265.37351 464.04883 265.90234 L 466.88086 265.90234 C 466.88086 265.01736 466.70379 264.18721 466.34766 263.41016 C 465.9915 262.6331 465.4942 261.96355 464.85742 261.40234 C 464.23146 260.83034 463.4816 260.38237 462.60742 260.05859 C 461.74403 259.72402 460.79391 259.55664 459.75781 259.55664 z M 483.65234 259.55664 C 482.37884 259.55664 481.24004 259.83723 480.23633 260.39844 C 479.24342 260.94886 478.39198 261.70548 477.67969 262.66602 L 477.5332 259.88086 L 474.68359 259.88086 L 474.68359 277.39648 L 477.69531 277.39648 L 477.69531 266.16211 C 478.10542 265.0181 478.74207 264.12699 479.60547 263.49023 C 480.47967 262.85348 481.61847 262.53516 483.02148 262.53516 C 483.5935 262.53516 484.1382 262.56806 484.65625 262.63281 C 485.18508 262.68676 485.74144 262.77869 486.32422 262.9082 L 486.72852 259.97852 C 486.57736 259.91376 486.38384 259.85475 486.14648 259.80078 C 485.91984 259.74681 485.66538 259.7023 485.38477 259.66992 C 485.11496 259.62678 484.82953 259.60068 484.52734 259.58984 C 484.22516 259.56817 483.93296 259.55664 483.65234 259.55664 z M 519.78711 259.55664 C 518.69707 259.55664 517.73531 259.75014 516.9043 260.13867 C 516.08406 260.51641 515.38356 261.06792 514.80078 261.79102 L 514.6543 259.88086 L 511.91797 259.88086 L 511.91797 284.13086 L 514.91406 284.13086 L 514.91406 275.71289 C 515.49687 276.36044 516.19253 276.85776 517.00195 277.20312 C 517.82219 277.54848 518.76554 277.7207 519.83398 277.7207 C 520.93483 277.7207 521.91301 277.4943 522.76562 277.04102 C 523.62902 276.58773 524.35082 275.96075 524.93359 275.16211 C 525.5164 274.36346 525.95953 273.42495 526.26172 272.3457 C 526.5639 271.25566 526.71484 270.08396 526.71484 268.83203 L 526.71484 268.49219 C 526.71484 267.1863 526.5639 265.98848 526.26172 264.89844 C 525.95953 263.7976 525.5164 262.85426 524.93359 262.06641 C 524.35082 261.27855 523.62902 260.6632 522.76562 260.2207 C 521.9022 259.77821 520.90953 259.55664 519.78711 259.55664 z M 638.5625 259.55664 C 637.55878 259.55664 636.57772 259.76176 635.61719 260.17188 C 634.66744 260.58199 633.81407 261.17607 633.05859 261.95312 C 632.31393 262.71939 631.71501 263.66274 631.26172 264.78516 C 630.80843 265.89678 630.58203 267.1604 630.58203 268.57422 L 630.58203 269.25391 C 630.58203 270.47346 630.78714 271.60064 631.19727 272.63672 C 631.60737 273.6728 632.17823 274.56874 632.91211 275.32422 C 633.64602 276.07969 634.5255 276.66894 635.55078 277.08984 C 636.58685 277.51075 637.72083 277.7207 638.95117 277.7207 C 639.80378 277.7207 640.59135 277.62396 641.31445 277.42969 C 642.03755 277.24621 642.68582 276.99658 643.25781 276.68359 C 643.82983 276.37061 644.33197 276.01456 644.76367 275.61523 C 645.20615 275.20512 645.57188 274.78038 645.86328 274.33789 L 644.03516 272.91211 C 643.48473 273.62441 642.79391 274.19721 641.96289 274.62891 C 641.13187 275.0606 640.18173 275.27539 639.11328 275.27539 C 638.30383 275.27539 637.56366 275.12445 636.89453 274.82227 C 636.2254 274.52007 635.64973 274.10984 635.16406 273.5918 C 634.68918 273.06297 634.30989 272.44761 634.0293 271.74609 C 633.75961 271.04458 633.60868 270.29474 633.57617 269.49609 L 646.08984 269.49609 L 646.08984 268.15234 C 646.08984 266.93279 645.93409 265.80078 645.62109 264.75391 C 645.31891 263.70704 644.85448 262.79947 644.22852 262.0332 C 643.60255 261.25614 642.81498 260.6524 641.86523 260.2207 C 640.9263 259.77821 639.82521 259.55664 638.5625 259.55664 z M 658.55664 259.55664 C 657.22914 259.55664 656.06908 259.79466 655.07617 260.26953 C 654.08326 260.7444 653.25116 261.38588 652.58203 262.19531 C 651.92369 262.99396 651.42831 263.9228 651.09375 264.98047 C 650.75919 266.03813 650.5918 267.14403 650.5918 268.29883 L 650.5918 268.97852 C 650.5918 270.1441 650.75919 271.25679 651.09375 272.31445 C 651.42831 273.36132 651.92369 274.28822 652.58203 275.09766 C 653.25116 275.8963 654.08326 276.53294 655.07617 277.00781 C 656.06908 277.48268 657.22914 277.7207 658.55664 277.7207 C 659.48479 277.7207 660.37395 277.56493 661.22656 277.25195 C 662.07915 276.92818 662.8358 276.50149 663.49414 275.97266 C 664.15248 275.43303 664.67592 274.81284 665.06445 274.11133 C 665.4645 273.39902 665.66961 272.65401 665.67969 271.87695 L 662.8457 271.87695 C 662.83487 272.36261 662.70522 272.81542 662.45703 273.23633 C 662.2196 273.64644 661.90127 274.00733 661.50195 274.32031 C 661.10263 274.62251 660.645 274.86053 660.12695 275.0332 C 659.61972 275.20588 659.09626 275.29297 658.55664 275.29297 C 657.61768 275.29297 656.83011 275.10913 656.19336 274.74219 C 655.56739 274.36445 655.05846 273.87874 654.66992 273.28516 C 654.2921 272.68078 654.0183 272.0064 653.8457 271.26172 C 653.68394 270.50624 653.60156 269.74478 653.60156 268.97852 L 653.60156 268.29883 C 653.60156 267.54335 653.68394 266.79351 653.8457 266.04883 C 654.0184 265.30415 654.29899 264.6346 654.6875 264.04102 C 655.07604 263.43664 655.58302 262.95093 656.20898 262.58398 C 656.84573 262.20625 657.62846 262.01758 658.55664 262.01758 C 659.16101 262.01758 659.72219 262.11917 660.24023 262.32422 C 660.76907 262.52928 661.22188 262.80986 661.59961 263.16602 C 661.97726 263.52217 662.2743 263.9392 662.49023 264.41406 C 662.71751 264.87814 662.83562 265.37351 662.8457 265.90234 L 665.67969 265.90234 C 665.67969 265.01736 665.50069 264.18721 665.14453 263.41016 C 664.78837 262.6331 664.293 261.96355 663.65625 261.40234 C 663.03028 260.83034 662.2785 260.38237 661.4043 260.05859 C 660.5409 259.72402 659.59271 259.55664 658.55664 259.55664 z M 757.59961 259.55664 C 756.36927 259.55664 755.26142 259.78983 754.2793 260.25391 C 753.29717 260.70719 752.46221 261.33221 751.77148 262.13086 C 751.09157 262.9295 750.56814 263.8748 750.20117 264.96484 C 749.83423 266.04409 749.65039 267.21384 749.65039 268.47656 L 749.65039 268.83203 C 749.65039 270.09475 749.83423 271.26645 750.20117 272.3457 C 750.56814 273.42495 751.09157 274.36346 751.77148 275.16211 C 752.46221 275.96075 753.29717 276.58773 754.2793 277.04102 C 755.2722 277.4943 756.38971 277.7207 757.63086 277.7207 C 758.8612 277.7207 759.9671 277.4943 760.94922 277.04102 C 761.93132 276.58773 762.76342 275.96075 763.44336 275.16211 C 764.13408 274.36346 764.66236 273.42495 765.0293 272.3457 C 765.39624 271.26645 765.58008 270.09475 765.58008 268.83203 L 765.58008 268.47656 C 765.58008 267.21384 765.39624 266.04409 765.0293 264.96484 C 764.66236 263.8748 764.13408 262.9295 763.44336 262.13086 C 762.76342 261.33221 761.9265 260.70719 760.93359 260.25391 C 759.9515 259.78983 758.84076 259.55664 757.59961 259.55664 z M 781.84961 259.55664 C 780.57608 259.55664 779.43729 259.83723 778.43359 260.39844 C 777.44069 260.94886 776.58731 261.70548 775.875 262.66602 L 775.73047 259.88086 L 772.88086 259.88086 L 772.88086 277.39648 L 775.89258 277.39648 L 775.89258 266.16211 C 776.30268 265.0181 776.93934 264.12699 777.80273 263.49023 C 778.67694 262.85348 779.81574 262.53516 781.21875 262.53516 C 781.79077 262.53516 782.33549 262.56806 782.85352 262.63281 C 783.38235 262.68676 783.93868 262.77869 784.52148 262.9082 L 784.92578 259.97852 C 784.7746 259.91376 784.57915 259.85475 784.3418 259.80078 C 784.11518 259.74681 783.86265 259.7023 783.58203 259.66992 C 783.31222 259.62678 783.02484 259.60068 782.72266 259.58984 C 782.42047 259.56817 782.13023 259.55664 781.84961 259.55664 z M 797.29297 259.55664 C 796.20293 259.55664 795.22668 259.70757 794.36328 260.00977 C 793.51067 260.31195 792.78211 260.71253 792.17773 261.20898 C 791.58415 261.69465 791.12651 262.2442 790.80273 262.85938 C 790.48903 263.47455 790.32648 264.09957 790.31641 264.73633 L 793.32812 264.73633 C 793.32813 264.36938 793.41334 264.02012 793.58594 263.68555 C 793.76942 263.3402 794.02388 263.04316 794.34766 262.79492 C 794.67141 262.54671 795.06522 262.34642 795.5293 262.19531 C 796.00418 262.04421 796.53727 261.96875 797.13086 261.96875 C 797.76761 261.96875 798.34042 262.04905 798.84766 262.21094 C 799.3657 262.37282 799.80205 262.60601 800.1582 262.9082 C 800.51436 263.1996 800.79011 263.55566 800.98438 263.97656 C 801.17864 264.39747 801.27539 264.87156 801.27539 265.40039 L 801.27539 266.77734 L 798.00586 266.77734 C 796.78633 266.77734 795.68043 266.89538 794.6875 267.13281 C 793.7054 267.37025 792.86364 267.73309 792.16211 268.21875 C 791.4606 268.69362 790.91588 269.29253 790.52734 270.01562 C 790.14962 270.73872 789.96094 271.58048 789.96094 272.54102 C 789.96094 273.2749 790.10027 273.95895 790.38086 274.5957 C 790.67226 275.22167 791.07766 275.76639 791.5957 276.23047 C 792.12453 276.68376 792.76117 277.04659 793.50586 277.31641 C 794.26131 277.58622 795.10307 277.7207 796.03125 277.7207 C 796.60324 277.7207 797.14315 277.6617 797.65039 277.54297 C 798.15765 277.42425 798.63174 277.26169 799.07422 277.05664 C 799.52751 276.85158 799.93775 276.61356 800.30469 276.34375 C 800.68241 276.07394 801.02201 275.78852 801.32422 275.48633 C 801.35647 275.85327 801.40595 276.20933 801.4707 276.55469 C 801.54629 276.88925 801.64304 277.16984 801.76172 277.39648 L 804.88672 277.39648 L 804.88672 277.13867 C 804.69235 276.65301 804.54144 276.08505 804.43359 275.4375 C 804.32575 274.77916 804.27148 274.15897 804.27148 273.57617 L 804.27148 265.43359 C 804.27148 264.45148 804.09249 263.59327 803.73633 262.85938 C 803.38017 262.12549 802.88961 261.51496 802.26367 261.0293 C 801.64849 260.53284 800.91511 260.16712 800.0625 259.92969 C 799.20989 259.68147 798.28588 259.55664 797.29297 259.55664 z M 816.57422 259.55664 C 815.48418 259.55664 814.50795 259.77821 813.64453 260.2207 C 812.78114 260.6632 812.04773 261.27855 811.44336 262.06641 C 810.83899 262.85426 810.37456 263.7976 810.05078 264.89844 C 809.73779 265.98848 809.58008 267.1863 809.58008 268.49219 L 809.58008 268.83398 C 809.58008 270.08591 809.74263 271.25566 810.06641 272.3457 C 810.39019 273.42495 810.84782 274.36346 811.44141 275.16211 C 812.04578 275.96075 812.78114 276.58773 813.64453 277.04102 C 814.50795 277.4943 815.47257 277.7207 816.54102 277.7207 C 817.58789 277.7207 818.50511 277.54848 819.29297 277.20312 C 820.09161 276.84697 820.78243 276.3332 821.36523 275.66406 L 821.36523 277.16992 C 821.36523 277.9254 821.25891 278.59494 821.04297 279.17773 C 820.82711 279.76053 820.51362 280.24624 820.10352 280.63477 C 819.7042 281.03409 819.21848 281.33596 818.64648 281.54102 C 818.07447 281.74607 817.43299 281.84961 816.7207 281.84961 C 816.32138 281.84961 815.92083 281.8051 815.52148 281.71875 C 815.12216 281.64321 814.72354 281.51356 814.32422 281.33008 C 813.9249 281.1466 813.53111 280.89892 813.14258 280.58594 C 812.75407 280.28375 812.37673 279.91124 812.00977 279.46875 L 810.45508 281.26562 C 810.8544 281.83763 811.32848 282.3185 811.87891 282.70703 C 812.44012 283.09556 813.01774 283.40226 813.61133 283.62891 C 814.2157 283.86634 814.80977 284.03373 815.39258 284.13086 C 815.97536 284.23878 816.49397 284.29297 816.94727 284.29297 C 818.04812 284.29297 819.05047 284.13042 819.95703 283.80664 C 820.86361 283.48287 821.64153 283.00878 822.28906 282.38281 C 822.94741 281.75685 823.45439 280.99539 823.81055 280.09961 C 824.17749 279.20383 824.36133 278.18019 824.36133 277.02539 L 824.36133 259.88086 L 821.64062 259.88086 L 821.49609 261.79102 C 820.9241 261.06792 820.22844 260.51641 819.4082 260.13867 C 818.59875 259.75014 817.65345 259.55664 816.57422 259.55664 z M 837.36133 259.55664 C 836.35761 259.55664 835.37459 259.76176 834.41406 260.17188 C 833.46432 260.58199 832.61092 261.17607 831.85547 261.95312 C 831.11078 262.71939 830.51189 263.66274 830.05859 264.78516 C 829.6053 265.89678 829.37891 267.1604 829.37891 268.57422 L 829.37891 269.25391 C 829.37891 270.47346 829.58401 271.60064 829.99414 272.63672 C 830.40424 273.6728 830.97703 274.56874 831.71094 275.32422 C 832.44482 276.07969 833.32432 276.66894 834.34961 277.08984 C 835.38568 277.51075 836.51964 277.7207 837.75 277.7207 C 838.60259 277.7207 839.39018 277.62396 840.11328 277.42969 C 840.83638 277.24621 841.48267 276.99658 842.05469 276.68359 C 842.62668 276.37061 843.12885 276.01456 843.56055 275.61523 C 844.00303 275.20512 844.37071 274.78038 844.66211 274.33789 L 842.83203 272.91211 C 842.28163 273.62441 841.59081 274.19721 840.75977 274.62891 C 839.92875 275.0606 838.9786 275.27539 837.91016 275.27539 C 837.10071 275.27539 836.36249 275.12445 835.69336 274.82227 C 835.02423 274.52007 834.44661 274.10984 833.96094 273.5918 C 833.48608 273.06297 833.10874 272.44761 832.82812 271.74609 C 832.55844 271.04458 832.4075 270.29474 832.375 269.49609 L 844.88867 269.49609 L 844.88867 268.15234 C 844.88867 266.93279 844.73096 265.80078 844.41797 264.75391 C 844.11578 263.70704 843.65331 262.79947 843.02734 262.0332 C 842.40138 261.25614 841.61185 260.6524 840.66211 260.2207 C 839.72317 259.77821 838.62404 259.55664 837.36133 259.55664 z M 897 259.55664 C 895.99628 259.55664 895.01326 259.76176 894.05273 260.17188 C 893.10301 260.58199 892.25157 261.17607 891.49609 261.95312 C 890.7514 262.71939 890.15251 263.66274 889.69922 264.78516 C 889.24595 265.89678 889.01953 267.1604 889.01953 268.57422 L 889.01953 269.25391 C 889.01953 270.47346 889.22466 271.60064 889.63477 272.63672 C 890.04487 273.6728 890.6157 274.56874 891.34961 275.32422 C 892.08349 276.07969 892.963 276.66894 893.98828 277.08984 C 895.02435 277.51075 896.15831 277.7207 897.38867 277.7207 C 898.24128 277.7207 899.02885 277.62396 899.75195 277.42969 C 900.47503 277.24621 901.12329 276.99658 901.69531 276.68359 C 902.26731 276.37061 902.76947 276.01456 903.20117 275.61523 C 903.64368 275.20512 904.0094 274.78038 904.30078 274.33789 L 902.47266 272.91211 C 901.92226 273.62441 901.23141 274.19721 900.40039 274.62891 C 899.56935 275.0606 898.61923 275.27539 897.55078 275.27539 C 896.74133 275.27539 896.00116 275.12445 895.33203 274.82227 C 894.6629 274.52007 894.08528 274.10984 893.59961 273.5918 C 893.12475 273.06297 892.74741 272.44761 892.4668 271.74609 C 892.19711 271.04458 892.04618 270.29474 892.01367 269.49609 L 904.52734 269.49609 L 904.52734 268.15234 C 904.52734 266.93279 904.37156 265.80078 904.05859 264.75391 C 903.75638 263.70704 903.29198 262.79947 902.66602 262.0332 C 902.04005 261.25614 901.25245 260.6524 900.30273 260.2207 C 899.36377 259.77821 898.26271 259.55664 897 259.55664 z M 937.26172 259.55664 C 936.17168 259.55664 935.20992 259.75014 934.37891 260.13867 C 933.55867 260.51641 932.85817 261.06792 932.27539 261.79102 L 932.12891 259.88086 L 929.39453 259.88086 L 929.39453 284.13086 L 932.38867 284.13086 L 932.38867 275.71289 C 932.97148 276.36044 933.66714 276.85776 934.47656 277.20312 C 935.2968 277.54848 936.2421 277.7207 937.31055 277.7207 C 938.4114 277.7207 939.38762 277.4943 940.24023 277.04102 C 941.10363 276.58773 941.82738 275.96075 942.41016 275.16211 C 942.99296 274.36346 943.43414 273.42495 943.73633 272.3457 C 944.03851 271.25566 944.18945 270.08396 944.18945 268.83203 L 944.18945 268.49219 C 944.18945 267.1863 944.03851 265.98848 943.73633 264.89844 C 943.43414 263.7976 942.99101 262.85426 942.4082 262.06641 C 941.82543 261.27855 941.10363 260.6632 940.24023 260.2207 C 939.37681 259.77821 938.38414 259.55664 937.26172 259.55664 z M 956.63867 259.55664 C 955.63498 259.55664 954.65389 259.76176 953.69336 260.17188 C 952.74361 260.58199 951.89024 261.17607 951.13477 261.95312 C 950.39007 262.71939 949.79116 263.66274 949.33789 264.78516 C 948.8846 265.89678 948.6582 267.1604 948.6582 268.57422 L 948.6582 269.25391 C 948.6582 270.47346 948.86333 271.60064 949.27344 272.63672 C 949.68357 273.6728 950.25635 274.56874 950.99023 275.32422 C 951.72412 276.07969 952.60362 276.66894 953.62891 277.08984 C 954.665 277.51075 955.79701 277.7207 957.02734 277.7207 C 957.87995 277.7207 958.66753 277.62396 959.39062 277.42969 C 960.11372 277.24621 960.76199 276.99658 961.33398 276.68359 C 961.90598 276.37061 962.40815 276.01456 962.83984 275.61523 C 963.28235 275.20512 963.64805 274.78038 963.93945 274.33789 L 962.11133 272.91211 C 961.5609 273.62441 960.87008 274.19721 960.03906 274.62891 C 959.20805 275.0606 958.25793 275.27539 957.18945 275.27539 C 956.38003 275.27539 955.64181 275.12445 954.97266 274.82227 C 954.30353 274.52007 953.7259 274.10984 953.24023 273.5918 C 952.76537 273.06297 952.38609 272.44761 952.10547 271.74609 C 951.83553 271.04458 951.6846 270.29474 951.65234 269.49609 L 964.16797 269.49609 L 964.16797 268.15234 C 964.16797 266.93279 964.01024 265.80078 963.69727 264.75391 C 963.39508 263.70704 962.93065 262.79947 962.30469 262.0332 C 961.67872 261.25614 960.89115 260.6524 959.94141 260.2207 C 959.00245 259.77821 957.90139 259.55664 956.63867 259.55664 z M 980.64648 259.55664 C 979.37299 259.55664 978.23419 259.83723 977.23047 260.39844 C 976.23756 260.94886 975.38614 261.70548 974.67383 262.66602 L 974.52734 259.88086 L 971.67773 259.88086 L 971.67773 277.39648 L 974.68945 277.39648 L 974.68945 266.16211 C 975.09956 265.0181 975.73621 264.12699 976.59961 263.49023 C 977.47381 262.85348 978.61261 262.53516 980.01562 262.53516 C 980.58764 262.53516 981.13237 262.56806 981.65039 262.63281 C 982.17922 262.68676 982.73556 262.77869 983.31836 262.9082 L 983.72266 259.97852 C 983.5715 259.91376 983.37798 259.85475 983.14062 259.80078 C 982.91398 259.74681 982.65952 259.7023 982.37891 259.66992 C 982.1091 259.62678 981.82367 259.60068 981.52148 259.58984 C 981.2193 259.56817 980.9271 259.55664 980.64648 259.55664 z M 391.42578 259.88086 L 398.62891 277.39648 L 400.91211 277.39648 L 408.05078 259.88086 L 404.99219 259.88086 L 400.08594 273.08984 L 399.79492 274.17578 L 399.51953 273.08984 L 394.50195 259.88086 L 391.42578 259.88086 z M 492.52344 259.88086 L 492.52344 262.48633 L 498.48242 262.48633 L 498.48242 274.80664 L 492.52344 274.80664 L 492.52344 277.39648 L 507.19141 277.39648 L 507.19141 274.80664 L 501.47656 274.80664 L 501.47656 259.88086 L 492.52344 259.88086 z M 613.35742 259.88086 L 613.35742 262.48633 L 619.20117 262.48633 L 619.20117 277.50977 C 619.20117 278.34079 619.09289 279.0384 618.87695 279.59961 C 618.6719 280.17161 618.3865 280.62925 618.01953 280.97461 C 617.65259 281.31998 617.22106 281.56283 616.72461 281.70312 C 616.22816 281.85423 615.69988 281.92969 615.13867 281.92969 C 614.98759 281.92969 614.77569 281.9249 614.50586 281.91406 C 614.24686 281.91406 613.97304 281.90253 613.68164 281.88086 C 613.40102 281.87008 613.12044 281.84878 612.83984 281.81641 C 612.5592 281.79481 612.32601 281.76871 612.14258 281.73633 L 611.93164 284.19531 C 612.52523 284.30323 613.0864 284.37387 613.61523 284.40625 C 614.15488 284.44941 614.7325 284.4707 615.34766 284.4707 C 616.42691 284.4707 617.38864 284.31494 618.23047 284.00195 C 619.08308 283.69976 619.80003 283.25179 620.38281 282.6582 C 620.9764 282.07541 621.42438 281.35168 621.72656 280.48828 C 622.03956 279.62488 622.19531 278.63218 622.19531 277.50977 L 622.19531 259.88086 L 613.35742 259.88086 z M 638.5625 262.01758 C 639.32876 262.01758 639.98671 262.1569 640.53711 262.4375 C 641.09832 262.7181 641.56272 263.08578 641.92969 263.53906 C 642.29665 263.99235 642.57243 264.50612 642.75586 265.07812 C 642.95013 265.65013 643.06345 266.2258 643.0957 266.80859 L 643.0957 267.03516 L 633.67383 267.03516 C 633.79253 266.22572 633.99766 265.51361 634.28906 264.89844 C 634.59125 264.27247 634.95893 263.74903 635.39062 263.32812 C 635.82235 262.89641 636.30804 262.57326 636.84766 262.35742 C 637.38727 262.13078 637.9581 262.01758 638.5625 262.01758 z M 757.59961 262.01758 C 758.43063 262.01758 759.1524 262.19463 759.76758 262.55078 C 760.39354 262.89614 760.91216 263.36735 761.32227 263.96094 C 761.74313 264.55452 762.05662 265.24535 762.26172 266.0332 C 762.47766 266.81026 762.58398 267.62395 762.58398 268.47656 L 762.58398 268.83203 C 762.58398 269.69543 762.48245 270.52269 762.27734 271.31055 C 762.07229 272.08761 761.75878 272.77165 761.33789 273.36523 C 760.92776 273.95882 760.41112 274.42808 759.78516 274.77344 C 759.16998 275.1188 758.45107 275.29297 757.63086 275.29297 C 756.79982 275.29297 756.07128 275.1188 755.44531 274.77344 C 754.81935 274.42808 754.29589 273.95882 753.875 273.36523 C 753.46492 272.77165 753.15823 272.08761 752.95312 271.31055 C 752.74802 270.52269 752.64453 269.69543 752.64453 268.83203 L 752.64453 268.47656 C 752.64453 267.62395 752.74802 266.81026 752.95312 266.0332 C 753.15818 265.24535 753.46487 264.55452 753.875 263.96094 C 754.29589 263.36735 754.81451 262.89614 755.42969 262.55078 C 756.04487 262.19463 756.76859 262.01758 757.59961 262.01758 z M 837.36133 262.01758 C 838.12759 262.01758 838.78551 262.1569 839.33594 262.4375 C 839.89715 262.7181 840.36157 263.08578 840.72852 263.53906 C 841.09548 263.99235 841.3693 264.50612 841.55273 265.07812 C 841.747 265.65013 841.86033 266.2258 841.89258 266.80859 L 841.89258 267.03516 L 832.4707 267.03516 C 832.58943 266.22572 832.79456 265.51361 833.08594 264.89844 C 833.38815 264.27247 833.7558 263.74903 834.1875 263.32812 C 834.6192 262.89641 835.10492 262.57326 835.64453 262.35742 C 836.18415 262.13078 836.75693 262.01758 837.36133 262.01758 z M 897 262.01758 C 897.76626 262.01758 898.42418 262.1569 898.97461 262.4375 C 899.53582 262.7181 900.00025 263.08578 900.36719 263.53906 C 900.73418 263.99235 901.00993 264.50612 901.19336 265.07812 C 901.38763 265.65013 901.50095 266.2258 901.5332 266.80859 L 901.5332 267.03516 L 892.11133 267.03516 C 892.23006 266.22572 892.43516 265.51361 892.72656 264.89844 C 893.02875 264.27247 893.39447 263.74903 893.82617 263.32812 C 894.25787 262.89641 894.74359 262.57326 895.2832 262.35742 C 895.82284 262.13078 896.39563 262.01758 897 262.01758 z M 956.63867 262.01758 C 957.40493 262.01758 958.06286 262.1569 958.61328 262.4375 C 959.17449 262.7181 959.63892 263.08578 960.00586 263.53906 C 960.37285 263.99235 960.6486 264.50612 960.83203 265.07812 C 961.0263 265.65013 961.13937 266.2258 961.17188 266.80859 L 961.17188 267.03516 L 951.75 267.03516 C 951.86873 266.22572 952.07383 265.51361 952.36523 264.89844 C 952.66742 264.27247 953.0351 263.74903 953.4668 263.32812 C 953.89849 262.89641 954.38421 262.57326 954.92383 262.35742 C 955.46347 262.13078 956.0343 262.01758 956.63867 262.01758 z M 518.89648 262.09766 C 519.73831 262.09766 520.46008 262.27183 521.06445 262.61719 C 521.66885 262.96255 522.16618 263.4318 522.55469 264.02539 C 522.95406 264.60819 523.2443 265.28739 523.42773 266.06445 C 523.622 266.83072 523.7207 267.63958 523.7207 268.49219 L 523.7207 268.83203 C 523.7207 269.68464 523.622 270.50029 523.42773 271.27734 C 523.24425 272.0544 522.95882 272.7404 522.57031 273.33398 C 522.18178 273.92757 521.6864 274.40166 521.08203 274.75781 C 520.47763 275.10317 519.75875 275.27539 518.92773 275.27539 C 517.93483 275.27539 517.11436 275.0606 516.4668 274.62891 C 515.81926 274.18641 515.3026 273.62041 514.91406 272.92969 L 514.91406 264.49414 C 515.3026 263.79263 515.81926 263.22179 516.4668 262.7793 C 517.12514 262.32601 517.93596 262.09766 518.89648 262.09766 z M 598.625 262.09766 C 599.4884 262.09766 600.21696 262.27183 600.81055 262.61719 C 601.40413 262.96255 601.88501 263.4318 602.25195 264.02539 C 602.61902 264.60819 602.88316 265.28739 603.04492 266.06445 C 603.21752 266.83072 603.30469 267.63958 603.30469 268.49219 L 603.30469 268.83203 C 603.30469 269.68464 603.21273 270.49545 603.0293 271.26172 C 602.8566 272.02799 602.58085 272.70236 602.20312 273.28516 C 601.83618 273.86795 601.35531 274.33238 600.76172 274.67773 C 600.17892 275.0123 599.47844 275.17969 598.6582 275.17969 C 598.14016 275.17969 597.66412 275.11389 597.23242 274.98438 C 596.80072 274.84408 596.41371 274.65058 596.06836 274.40234 C 595.72299 274.15412 595.41434 273.86675 595.14453 273.54297 C 594.88551 273.2084 594.65911 272.84751 594.46484 272.45898 L 594.46484 264.80273 C 594.64833 264.4142 594.86988 264.05815 595.12891 263.73438 C 595.39871 263.3998 595.70059 263.11243 596.03516 262.875 C 596.38053 262.62677 596.76947 262.43811 597.20117 262.30859 C 597.63287 262.1683 598.10695 262.09766 598.625 262.09766 z M 817.31836 262.09766 C 817.81481 262.09766 818.26763 262.16346 818.67773 262.29297 C 819.08786 262.41168 819.46036 262.5839 819.79492 262.81055 C 820.12949 263.0264 820.42652 263.2857 820.68555 263.58789 C 820.94457 263.89008 821.17097 264.22485 821.36523 264.5918 L 821.36523 272.62109 C 821.17097 272.99883 820.94457 273.34327 820.68555 273.65625 C 820.42652 273.96923 820.12949 274.24015 819.79492 274.4668 C 819.47114 274.69344 819.09865 274.87049 818.67773 275 C 818.26763 275.11873 817.80516 275.17969 817.28711 275.17969 C 816.45609 275.17969 815.74398 275.0123 815.15039 274.67773 C 814.5568 274.33238 814.06432 273.86795 813.67578 273.28516 C 813.298 272.70236 813.01742 272.02799 812.83398 271.26172 C 812.66139 270.49545 812.57617 269.68464 812.57617 268.83203 L 812.57617 268.49219 C 812.57617 267.63958 812.66139 266.83072 812.83398 266.06445 C 813.01747 265.28739 813.29806 264.60819 813.67578 264.02539 C 814.06432 263.4318 814.5568 262.96255 815.15039 262.61719 C 815.75476 262.27183 816.47653 262.09766 817.31836 262.09766 z M 936.37109 262.09766 C 937.21292 262.09766 937.93664 262.27183 938.54102 262.61719 C 939.14541 262.96255 939.64079 263.4318 940.0293 264.02539 C 940.42867 264.60819 940.72086 265.28739 940.9043 266.06445 C 941.09856 266.83072 941.19531 267.63958 941.19531 268.49219 L 941.19531 268.83203 C 941.19531 269.68464 941.09856 270.50029 940.9043 271.27734 C 940.72084 272.0544 940.43346 272.7404 940.04492 273.33398 C 939.65639 273.92757 939.16101 274.40166 938.55664 274.75781 C 937.95224 275.10317 937.23336 275.27539 936.40234 275.27539 C 935.40944 275.27539 934.59092 275.0606 933.94336 274.62891 C 933.29583 274.18641 932.77721 273.62041 932.38867 272.92969 L 932.38867 264.49414 C 932.77721 263.79263 933.29583 263.22179 933.94336 262.7793 C 934.6017 262.32601 935.41056 262.09766 936.37109 262.09766 z M 381.01562 268.89844 L 383.80078 268.89844 L 383.80078 272.44336 C 383.62811 272.78872 383.39008 273.12349 383.08789 273.44727 C 382.7857 273.76026 382.42482 274.04085 382.00391 274.28906 C 381.5938 274.53728 381.13422 274.73561 380.62695 274.88672 C 380.11972 275.03782 379.57499 275.11328 378.99219 275.11328 C 378.40941 275.11328 377.89759 275.03782 377.45508 274.88672 C 377.01258 274.73562 376.64491 274.5305 376.35352 274.27148 C 376.06213 274.00167 375.84056 273.68335 375.68945 273.31641 C 375.54916 272.94946 375.48047 272.55084 375.48047 272.11914 C 375.48047 271.00751 375.96617 270.19187 376.9375 269.67383 C 377.90882 269.15579 379.26724 268.89844 381.01562 268.89844 z M 420.77539 268.89844 L 423.56055 268.89844 L 423.56055 272.44336 C 423.38787 272.78872 423.14984 273.12349 422.84766 273.44727 C 422.54545 273.76026 422.18456 274.04085 421.76367 274.28906 C 421.35354 274.53728 420.89396 274.73561 420.38672 274.88672 C 419.87946 275.03782 419.33473 275.11328 418.75195 275.11328 C 418.16915 275.11328 417.65733 275.03782 417.21484 274.88672 C 416.77234 274.73562 416.40468 274.5305 416.11328 274.27148 C 415.82198 274.00167 415.6004 273.68335 415.44922 273.31641 C 415.30887 272.94946 415.23828 272.55084 415.23828 272.11914 C 415.23828 271.00751 415.724 270.19187 416.69531 269.67383 C 417.66665 269.15579 419.02701 268.89844 420.77539 268.89844 z M 798.49219 268.89844 L 801.27539 268.89844 L 801.27539 272.44336 C 801.10269 272.78872 800.86664 273.12349 800.56445 273.44727 C 800.26227 273.76026 799.89943 274.04085 799.47852 274.28906 C 799.06841 274.53728 798.61078 274.73561 798.10352 274.88672 C 797.59628 275.03782 797.05155 275.11328 796.46875 275.11328 C 795.88597 275.11328 795.37219 275.03782 794.92969 274.88672 C 794.48721 274.73562 794.12148 274.5305 793.83008 274.27148 C 793.53878 274.00167 793.3172 273.68335 793.16602 273.31641 C 793.02567 272.94946 792.95508 272.55084 792.95508 272.11914 C 792.95508 271.00751 793.44077 270.19187 794.41211 269.67383 C 795.38342 269.15579 796.7438 268.89844 798.49219 268.89844 z "
     style="font-style:normal;font-variant:normal;font-weight:normal;font-stretch:normal;font-size:8.77214px;line-height:1.25;font-family:'Roboto Mono';-inkscape-font-specification:'Roboto Mono';letter-spacing:0px;word-spacing:0px;fill:#193920;fill-opacity:0.512097;stroke-width:0.345361"
     id="path1626" />
</svg>
